<svg width="166" height="33" viewBox="0 0 166 33" fill="none" xmlns="http://www.w3.org/2000/svg">
<path d="M22.8182 8.528C20.2262 8.528 17.9862 9.584 16.6102 11.344C15.3942 9.456 13.3462 8.528 10.9462 8.528C8.73825 8.528 6.81825 9.296 5.53825 10.768V8.784H0.770248V26H5.76225V17.36C5.76225 14.288 7.33025 12.848 9.53825 12.848C11.6182 12.848 12.8022 14.128 12.8022 16.912V26H17.7942V17.36C17.7942 14.288 19.3622 12.848 21.6022 12.848C23.6182 12.848 24.8662 14.128 24.8662 16.912V26H29.8582V16.144C29.8582 10.896 26.9142 8.528 22.8182 8.528ZM40.6367 8.528C37.8847 8.528 35.1007 9.264 33.2127 10.608L35.0047 14.096C36.2527 13.104 38.1407 12.496 39.9647 12.496C42.6527 12.496 43.9327 13.744 43.9327 15.888H39.9647C34.7167 15.888 32.5727 18 32.5727 21.04C32.5727 24.016 34.9727 26.256 39.0047 26.256C41.5327 26.256 43.3247 25.424 44.2527 23.856V26H48.9247V16.176C48.9247 10.96 45.8847 8.528 40.6367 8.528ZM40.2527 22.896C38.4927 22.896 37.4367 22.064 37.4367 20.816C37.4367 19.664 38.1727 18.8 40.5087 18.8H43.9327V20.56C43.3567 22.128 41.9167 22.896 40.2527 22.896ZM63.2667 8.528C60.9307 8.528 58.9147 9.328 57.5707 10.8V8.784H52.8027V26H57.7947V17.488C57.7947 14.32 59.5227 12.848 61.9227 12.848C64.1307 12.848 65.4107 14.128 65.4107 16.912V26H70.4028V16.144C70.4028 10.896 67.3307 8.528 63.2667 8.528ZM86.2633 8.784L81.3993 20.464L76.5672 8.784H71.4152L78.8712 26.128L78.8072 26.288C78.1352 27.824 77.3672 28.432 75.9912 28.432C74.9992 28.432 73.9432 28.016 73.1752 27.344L71.3512 30.896C72.4712 31.888 74.3912 32.464 76.1512 32.464C79.2552 32.464 81.6233 31.216 83.2872 27.056L91.0632 8.784H86.2633ZM102.689 21.648C102.145 22.064 101.409 22.288 100.673 22.288C99.329 22.288 98.529 21.488 98.529 20.016V13.008H102.817V9.168H98.529V4.976H93.537V9.168H90.881V13.008H93.537V20.08C93.537 24.176 95.905 26.256 99.969 26.256C101.505 26.256 103.009 25.904 104.033 25.168L102.689 21.648ZM108.691 6.384C110.547 6.384 111.795 5.168 111.795 3.504C111.795 1.968 110.547 0.815998 108.691 0.815998C106.835 0.815998 105.587 2.032 105.587 3.6C105.587 5.168 106.835 6.384 108.691 6.384ZM106.195 26H111.187V8.784H106.195V26ZM137.228 8.528C134.636 8.528 132.396 9.584 131.02 11.344C129.804 9.456 127.756 8.528 125.356 8.528C123.148 8.528 121.228 9.296 119.948 10.768V8.784H115.18V26H120.172V17.36C120.172 14.288 121.74 12.848 123.948 12.848C126.028 12.848 127.212 14.128 127.212 16.912V26H132.204V17.36C132.204 14.288 133.772 12.848 136.012 12.848C138.028 12.848 139.276 14.128 139.276 16.912V26H144.268V16.144C144.268 10.896 141.324 8.528 137.228 8.528ZM165.154 17.456C165.154 11.92 161.25 8.528 156.194 8.528C150.946 8.528 147.01 12.24 147.01 17.392C147.01 22.512 150.882 26.256 156.834 26.256C159.938 26.256 162.338 25.296 163.938 23.472L161.282 20.592C160.098 21.712 158.786 22.256 156.962 22.256C154.338 22.256 152.514 20.944 152.034 18.8H165.058C165.09 18.384 165.154 17.84 165.154 17.456ZM156.226 12.304C158.466 12.304 160.098 13.712 160.45 15.888H151.97C152.322 13.68 153.954 12.304 156.226 12.304Z" fill="#FFF8F1"/>
</svg>
